<svg width="64" height="86" viewBox="0 0 64 86" fill="none" xmlns="http://www.w3.org/2000/svg">
<path d="M4 86C3.06345 85.9997 1.96497 85.8677 1.09375 85.0312C0.22253 84.1949 0.00023 83.0182 0 82V8C0 3.52162 4.05958 0 9 0H55C59.9404 0 64 3.52163 64 8V82C63.9998 83.0182 63.7775 84.1949 62.9062 85.0312C62.035 85.8677 60.9366 85.9997 60 86C59.585 85.998 59.1809 85.8669 58.8438 85.625L32 66.4375L5.15625 85.625C4.81907 85.8669 4.41499 85.998 4 86V86ZM4 81.5625L30.8438 62.375C31.1818 62.1355 31.5858 62.007 32 62.007C32.4142 62.007 32.8182 62.1355 33.1562 62.375L60 81.5625V8C60 5.93337 58.1402 4 55 4H9C5.85976 4 4 5.93338 4 8V81.5625Z" fill="black"/>
</svg>
