<svg width="80" height="80" viewBox="0 0 80 80" fill="none" xmlns="http://www.w3.org/2000/svg">
<path d="M40 0C17.9349 0 0 17.9349 0 40C0 62.065 17.9349 80 40 80C62.0651 80 80 62.065 80 40C80 17.9349 62.0651 0 40 0ZM40 4.44444C59.6631 4.44444 75.5556 20.3368 75.5556 40C75.5556 59.6631 59.6631 75.5556 40 75.5556C20.3369 75.5556 4.44444 59.6631 4.44444 40C4.44444 20.3368 20.3369 4.44444 40 4.44444ZM39.7569 17.7431C39.2046 17.8038 38.6951 18.0691 38.3287 18.4869C37.9624 18.9047 37.7658 19.4445 37.7778 20V37.7778H20C19.9306 37.7745 19.8611 37.7745 19.7917 37.7778C19.4998 37.7914 19.2135 37.8624 18.949 37.9867C18.6846 38.111 18.4473 38.2861 18.2505 38.5022C18.0538 38.7182 17.9016 38.9709 17.8025 39.2457C17.7034 39.5206 17.6595 39.8123 17.6732 40.1042C17.6868 40.3961 17.7579 40.6824 17.8822 40.9468C18.0066 41.2112 18.1818 41.4485 18.3979 41.6452C18.6139 41.8419 18.8666 41.9941 19.1415 42.0931C19.4164 42.1921 19.7081 42.236 20 42.2222H37.7778V60C37.7736 60.2945 37.828 60.5868 37.9378 60.8601C38.0476 61.1334 38.2107 61.3821 38.4174 61.5918C38.6242 61.8015 38.8706 61.968 39.1423 62.0817C39.4139 62.1953 39.7055 62.2539 40 62.2539C40.2945 62.2539 40.5861 62.1953 40.8577 62.0817C41.1294 61.968 41.3758 61.8015 41.5826 61.5918C41.7893 61.3821 41.9524 61.1334 42.0622 60.8601C42.172 60.5868 42.2264 60.2945 42.2222 60V42.2222H60C60.2945 42.2264 60.5868 42.172 60.8601 42.0622C61.1334 41.9524 61.3821 41.7893 61.5918 41.5826C61.8015 41.3758 61.968 41.1294 62.0817 40.8577C62.1953 40.5861 62.2539 40.2945 62.2539 40C62.2539 39.7055 62.1953 39.4139 62.0817 39.1423C61.968 38.8706 61.8015 38.6242 61.5918 38.4174C61.3821 38.2107 61.1334 38.0476 60.8601 37.9378C60.5868 37.828 60.2945 37.7736 60 37.7778H42.2222V20C42.229 19.6837 42.1682 19.3695 42.0438 19.0785C41.9195 18.7876 41.7344 18.5266 41.501 18.3129C41.2676 18.0992 40.9913 17.9379 40.6905 17.8396C40.3898 17.7413 40.0715 17.7084 39.7569 17.7431V17.7431Z" fill="black"/>
</svg>
